/* XPM */
static const char * editcut_xpm[] = {
"16 16 6 1",
" 	c None",
".	c #000000",
"+	c #CCCCCC",
"@	c #7F7F7F",
"#	c #4C4C4C",
"$	c #00007F",
"   .       .    ",
"  .+.     .+.   ",
"  .++.   .++.   ",
"  .++.   .++.   ",
"   .++. .++.    ",
"   .++. .++.    ",
"   .+++.+++.    ",
"    .+@+++.     ",
"     .+#+.      ",
"     .$+$.      ",
"   ..$$.$$..    ",
"  .$$$...$$$.   ",
"  .$ $. .$ $.   ",
"  .$$$. .$$$.   ",
"   ...   ...    ",
"                "};
