/* XPM */
static const char * editpaste_xpm[] = {
"16 16 7 1",
" 	c None",
".	c #999999",
"+	c #7F7F7F",
"@	c #4C4C4C",
"#	c #827F00",
"$	c #000000",
"%	c #FFFFFF",
"     ..         ",
"    .+@.        ",
"  #......#      ",
" ##########     ",
" ##########     ",
" ######$$$$$    ",
" ######$%%%$$   ",
" ######$%%%$%$  ",
" ######$%%%$$$$ ",
" ######$%%%%%%$ ",
" ######$%%%%%%$ ",
" ######$%%%%%%$ ",
" ######$%%%%%%$ ",
"  #####$%%%%%%$ ",
"       $$$$$$$$ ",
"                "};
