/* XPM */
static const char * gridsnap_xpm[] = {
"16 16 11 1",
" 	c None",
".	c #0000FF",
"+	c #333333",
"@	c #191919",
"#	c #000000",
"$	c #00007F",
"%	c #FF0000",
"&	c #7F0000",
"*	c #4C4C4C",
"=	c #E5E5E5",
"-	c #666666",
"                ",
"    .     +@##  ",
"    .$   @##### ",
"    .$  @##$ #@ ",
" ......%&#..$@# ",
"  $$.$$$%$.$@#* ",
"    .$    .@##  ",
"    .$    =-#   ",
"    .$    .=    ",
"    .$    .$    ",
" .............  ",
"  $$.$$$$$.$$$$ ",
"    .$    .$    ",
"    .$    .$    ",
"     $     $    ",
"                "};
