/* XPM */
/* $Id: gridshow.xpm,v 1.1.1.1 2005-04-15 17:01:07 cryan Exp $ */
static const char * gridshow_xpm[] = {
"16 16 3 1",
" 	c None",
".	c #0000FF",
"+	c #00007F",
"                ",
"    .     .     ",
"    .+    .+    ",
"    .+    .+    ",
" .............  ",
"  ++.+++++.++++ ",
"    .+    .+    ",
"    .+    .+    ",
"    .+    .+    ",
"    .+    .+    ",
" .............  ",
"  ++.+++++.++++ ",
"    .+    .+    ",
"    .+    .+    ",
"     +     +    ",
"                "};
