/* XPM */
/* $Id: itemimage.xpm,v 1.1.1.1 2005-04-15 17:01:07 cryan Exp $ */
static const char * itemimage_xpm[] = {
"16 16 7 1",
" 	c None",
".	c #00FFFF",
"+	c #000000",
"@	c #999999",
"#	c #00FF00",
"$	c #FFFF00",
"%	c #FFFFFF",
"                ",
" ++++++++++++++ ",
" +$$$$........+ ",
" +$$$....%%...+ ",
" +$$....%%%%%.+ ",
" +........%%..+ ",
" +............+ ",
" +....@@......+ ",
" +...@@@@.@@..+ ",
" +..@@@@@@@@@.+ ",
" +.@@@@@@@@@@@+ ",
" +@@####@@@#@@+ ",
" +############+ ",
" +############+ ",
" ++++++++++++++ ",
"                "};
