/* XPM */
static const char * itemgraph_xpm[] = {
"16 16 6 1",
" 	c None",
".	c #000000",
"+	c #FF0000",
"@	c #FF00FF",
"#	c #0000FF",
"$	c #00FF00",
"                ",
" .              ",
" . ++           ",
" . ++           ",
" . ++           ",
" . ++       @@  ",
" . ++ ##    @@  ",
" . ++ ##    @@  ",
" . ++ ## $$ @@  ",
" . ++ ## $$ @@  ",
" .............. ",
"                ",
"    .  .  .  .  ",
"   .  .  .  .   ",
"  .  .  .  .    ",
"                "};
