/* XPM */
static const char * itemline_xpm[] = {
"16 16 5 1",
" 	c None",
".	c #0000FF",
"+	c #000000",
"@	c #333333",
"#	c #666666",
"                ",
"            ... ",
"            .+. ",
"           @... ",
"          @+#   ",
"         @+#    ",
"        @+#     ",
"       @+#      ",
"      @+#       ",
"     @+#        ",
"    @+#         ",
"   @+#          ",
" ...#           ",
" .+.            ",
" ...            ",
"                "};
