/* XPM */
static const char * itemlabel_xpm[] = {
"16 16 7 1",
" 	c None",
".	c #000000",
"+	c #827F00",
"@	c #7F7F7F",
"#	c #FFFF00",
"$	c #FFFFFF",
"%	c #B2B2B2",
"                ",
"                ",
"  .             ",
" . .+++++       ",
" .+.@##$$+      ",
"  +@##$$$$+     ",
"  ++#$$%%$$+    ",
"   +$$%$%$$$+   ",
"    +$$%$$%$$+  ",
"     +$$$%$$$$+ ",
"      +$$$%$%$+ ",
"       +$$%$$+  ",
"        +$$$+   ",
"         +++    ",
"                ",
"                "};
