/* XPM */
static const char * itemfield_xpm[] = {
"16 16 6 1",
" 	c None",
".	c #7F7F7F",
"+	c #4C4C4C",
"@	c #000000",
"#	c #333333",
"$	c #666666",
"                ",
"                ",
"                ",
"   .+++++++     ",
"   .@@@+.#@#    ",
"    .@@  .@@    ",
"    .@@ .# #    ",
"    .@@ @#      ",
"    .@@#@#      ",
"    .@@ .#      ",
"    .@@  .      ",
"    +@@$        ",
"   +@@@@$       ",
"                ",
"                ",
"                "};
