/* XPM */
static const char * OpenReportsIcon_xpm[] = {
"32 32 228 2",
"  	c None",
". 	c #B4BED1",
"+ 	c #425A8E",
"@ 	c #4B66A0",
"# 	c #4B659D",
"$ 	c #4B659E",
"% 	c #4A659D",
"& 	c #4A669D",
"* 	c #4A659E",
"= 	c #4A65A0",
"- 	c #4A649F",
"; 	c #425A93",
"> 	c #8B9EC0",
", 	c #001067",
"' 	c #234BA0",
") 	c #1F4597",
"! 	c #A0B5C9",
"~ 	c #00297F",
"{ 	c #6099DE",
"] 	c #5895D1",
"^ 	c #5892D2",
"/ 	c #5894D2",
"( 	c #5A93D2",
"_ 	c #5894D0",
": 	c #5894D1",
"< 	c #5893D3",
"[ 	c #5490CC",
"} 	c #5C98DF",
"| 	c #001B73",
"1 	c #5386CB",
"2 	c #415F9D",
"3 	c #002980",
"4 	c #4277C2",
"5 	c #265DAE",
"6 	c #4F8BC4",
"7 	c #5592D1",
"8 	c #001C70",
"9 	c #001B75",
"0 	c #003089",
"a 	c #01368A",
"b 	c #093E94",
"c 	c #03388A",
"d 	c #003687",
"e 	c #013786",
"f 	c #003786",
"g 	c #003788",
"h 	c #003785",
"i 	c #003986",
"j 	c #00388A",
"k 	c #00358B",
"l 	c #5187CB",
"m 	c #5792D2",
"n 	c #001C6E",
"o 	c #4279BF",
"p 	c #002F8E",
"q 	c #437AC4",
"r 	c #002680",
"s 	c #5186CA",
"t 	c #001C6F",
"u 	c #9AA6C4",
"v 	c #7C8FBD",
"w 	c #889FC6",
"x 	c #245BA8",
"y 	c #245AA6",
"z 	c #245AAA",
"A 	c #245AA7",
"B 	c #245AA8",
"C 	c #245AA5",
"D 	c #2458A8",
"E 	c #255BA7",
"F 	c #295EA3",
"G 	c #427ABF",
"H 	c #00267D",
"I 	c #294586",
"J 	c #001A6B",
"K 	c #082874",
"L 	c #163880",
"M 	c #1C3E84",
"N 	c #538BCD",
"O 	c #4279C1",
"P 	c #00267F",
"Q 	c #345496",
"R 	c #234699",
"S 	c #FFFFFF",
"T 	c #A3C1ED",
"U 	c #001C72",
"V 	c #548ACE",
"W 	c #00287E",
"X 	c #5088CC",
"Y 	c #375399",
"Z 	c #1F3E87",
"` 	c #C6D1E1",
" .	c #AAB9D4",
"..	c #AFC4DD",
"+.	c #B1C3D4",
"@.	c #A6BBE1",
"#.	c #518CCD",
"$.	c #00267E",
"%.	c #5286CC",
"&.	c #5592D2",
"*.	c #365498",
"=.	c #213C84",
"-.	c #3E547E",
";.	c #00094C",
">.	c #00175A",
",.	c #001559",
"'.	c #00155B",
").	c #00145A",
"!.	c #00155A",
"~.	c #001255",
"{.	c #00174D",
"].	c #FDFFFF",
"^.	c #001A6D",
"/.	c #F0FFFF",
"(.	c #EDF9FA",
"_.	c #A2B8DF",
":.	c #548BCE",
"<.	c #1D3E88",
"[.	c #D3DFEA",
"}.	c #C0D4E4",
"|.	c #C2D7E8",
"1.	c #C1D7E6",
"2.	c #C1D7E7",
"3.	c #C3D7E8",
"4.	c #C1D6E6",
"5.	c #C4D5E2",
"6.	c #A3B8E0",
"7.	c #528BCD",
"8.	c #375396",
"9.	c #1E3F86",
"0.	c #3C517B",
"a.	c #000549",
"b.	c #000D54",
"c.	c #000B4F",
"d.	c #00124B",
"e.	c #FCFFFF",
"f.	c #A4BBE1",
"g.	c #5288CB",
"h.	c #1E3F85",
"i.	c #E3F1F1",
"j.	c #D6EAEC",
"k.	c #D8ECEE",
"l.	c #D8EDEE",
"m.	c #D8EBEE",
"n.	c #DAEDEE",
"o.	c #D6ECEE",
"p.	c #D9ECEE",
"q.	c #D9EDEE",
"r.	c #D9EAEE",
"s.	c #DBE9EA",
"t.	c #A3B8E1",
"u.	c #001A6C",
"v.	c #528BCF",
"w.	c #E1EEFA",
"x.	c #00287D",
"y.	c #5287CB",
"z.	c #001157",
"A.	c #001158",
"B.	c #000F58",
"C.	c #001156",
"D.	c #001056",
"E.	c #001058",
"F.	c #1D3F89",
"G.	c #CFDFEA",
"H.	c #C9D5E2",
"I.	c #A3B9DF",
"J.	c #E4F5F8",
"K.	c #E6F6FA",
"L.	c #E7F5F7",
"M.	c #A3B6DD",
"N.	c #4279C2",
"O.	c #5188CB",
"P.	c #5592D0",
"Q.	c #F7FFFF",
"R.	c #405681",
"S.	c #C1D3E1",
"T.	c #A1B8DE",
"U.	c #375395",
"V.	c #CCD9E1",
"W.	c #B7CAD7",
"X.	c #B9CDD8",
"Y.	c #B9CAD5",
"Z.	c #001866",
"`.	c #001D7A",
" +	c #BAD8E5",
".+	c #001865",
"++	c #E9F6FE",
"@+	c #A3B8DF",
"#+	c #5288CC",
"$+	c #F8FFFF",
"%+	c #C0CFDE",
"&+	c #00226B",
"*+	c #375397",
"=+	c #1F3E8A",
"-+	c #00145B",
";+	c #001751",
">+	c #FEFFFF",
",+	c #DCECF7",
"'+	c #DEF5FF",
")+	c #DCF1FF",
"!+	c #E0F3FE",
"~+	c #DFF2FF",
"{+	c #DDECF1",
"]+	c #4179C2",
"^+	c #002781",
"/+	c #5083D5",
"(+	c #5889DB",
"_+	c #001A72",
":+	c #BDCAD9",
"<+	c #001C76",
"[+	c #E4F1FD",
"}+	c #001D71",
"|+	c #B8D6E3",
"1+	c #001963",
"2+	c #001B6F",
"3+	c #538CD1",
"4+	c #001A77",
"5+	c #849DC1",
"6+	c #88A0C6",
"7+	c #FFFFFE",
"8+	c #FFFEFD",
"9+	c #00247E",
"0+	c #002074",
"a+	c #000A61",
"b+	c #FFFFFD",
"c+	c #38549B",
"d+	c #FBFFFF",
"e+	c #A4C5F1",
"                                                                ",
"                  . + @ # # $ $ # % & & & & % * = - ;           ",
"                  > , ' ' ) ) ) ) ) ) ' ' ' ' ' ' ) ,           ",
"                  ! ~ { ] ^ / / ( / _ : < < < : [ } |           ",
"            > @ 1 2 3 4 5 5 5 5 5 5 5 5 5 5 5 5 6 7 8           ",
"            2 9 0 a b c d e f g g h i g f j k 3 l m n           ",
"            o p { } } } { { { { { { { { { < q r s m t           ",
"      u v w ' p 5 x y z y A B C A C D E F 6 G H 1 m t           ",
"      I J K L M L L L L L L L L L L L c 3 N O P 1 m t           ",
"      Q R S S S S S S S S S S S S S S T U V O W X m t           ",
"      Y Z S `  ...........+..... .+.S @.J #.O $.%.&.t           ",
"      *.=.S -.;.>.,.'.,.).).!.,.~.{.].@.^.#.o P s m t           ",
"      Q Z S /././././././././././.(.S _.^.:.o r %.&.t           ",
"      Y <.S [.}.|.1.2.2.3.1.1.1.4.5.S 6.^.7.O r %.m t           ",
"      8.9.S 0.a.b.c.b.b.b.c.c.b.;.d.e.f.^.#.O P g.m t           ",
"      8.h.S i.j.k.l.m.n.o.p.p.q.r.s.S t.u.v.O H g.&.t           ",
"      Y 9.S w.j.o.o.m.o.o.r.m.o.o.[.S t.^.:.o x.y.&.t           ",
"      Y 9.S 0.a.z.A.B.C.D.A.B.E.b.d.S f.u.N o x.y.&.t           ",
"      Y F.S r.3.G.G.3.3.H.3.3.3.1.H.S I.u.:.O P g.&.t           ",
"      Y F.S (.J.K.L.S S S S S S S S S M.^.:.N.r O.P.t           ",
"      8.9.S 0.a.;.a.Q.S 3.R.S.R.w.S S T.J v.o $.1 P.8           ",
"      U.h.S V.W.X.Y.S G.Z.`. +.+K ++S @+J 7.4 $.#+7 8           ",
"      Y <.S $+Q.Q./.S 0.n K %+&+Z.# S T.^.:.N.P #+< t           ",
"      *+=+S R.c.-+;+>+,+'+)+Q.!+~+{+S _.^.7.]+^+/+(+_+          ",
"      Q =+S :+! ! ! S =.a.B.X.c.a.R.S _.u.7.4 0 <+.+E.          ",
"      *+Z S S S S S S [+&+}+|+1+L $+S T.2+3+q 4+                ",
"      *+9.S 0.a.B.d.$+S Q.v H.v >+S S _._+(+q _+                ",
"      Y M S  .5+6+> e.7+S S S S S 8+S I.<+9+0+a+                ",
"      *.Z S S S S S S 7+b+7+S 7+b+7+S I.,                       ",
"      c+) S ].d+d+S S S ].].].].].S S e+,                       ",
"      I a+a.a.a.a.a.a.a.a.a.a.a.a.a.a.b.,                       ",
"                                                                "};
